PathFileType	4	(X/Y/Z)	C:/Users/beibeiliu/ov580/test_trc/User2\sequence.2_training_dense_right.trc
DataRate	CameraRate	NumFrames	NumMarkers	Units	OrigDataRate	OrigDataStartFrame	OrigNumFrames
120	120	10	19	mm	120	1	79
Frame#	Time	ThumbCMC			ThumbMCP			ThumbIP			ThumbTip			IndexMCP			IndexPIP			IndexTip			MiddleMCP			MiddlePIP			MiddleTip			RingMCP			RingPIP			RingTip			PinkyMCP			PinkyPIP			PinkyTip			BackHand1			BackHand2			BackHand3	
		X0	Y0	Z0	X1	Y1	Z1	X2	Y2	Z2	X3	Y3	Z3	X4	Y4	Z4	X5	Y5	Z5	X6	Y6	Z6	X7	Y7	Z7	X8	Y8	Z8	X9	Y9	Z9	X10	Y10	Z10	X11	Y11	Z11	X12	Y12	Z12	X13	Y13	Z13	X14	Y14	Z14	X15	Y15	Z15	X16	Y16	Z16	X17	Y17	Z17	X18	Y18	Z18	
0	0	2.78875	-1.10518	15.6599	-27.9497	-5.06543	-1.64714	-49.0804	-18.7725	-26.4984	-62.545	-31.2871	-42.5386	9.07091	-27.1085	-66.636	-0.56323	-43.153	-91.6863	-9.64957	-54.4496	-111.342	38.8883	-39.2479	-72.335	31.6975	-56.5945	-97.3482	31.5141	-77.4289	-122.603	60.1076	-50.7088	-63.1921	61.4286	-66.8086	-84.9837	64.4186	-83.2287	-109.14	77.5325	-57.9228	-42.6294	85.2797	-74.7473	-61.5585	93.0541	-87.2761	-78.6789	64.3962	-16.6751	-15.4772	68.5635	2.72773	13.2062	34.4783	6.23518	-3.80211	
1	0.00833333	5.77517	14.9124	10.6365	-19.3168	16.3892	-0.252625	-45.971	8.47202	-26.5623	-66.2699	2.80675	-37.9409	4.45181	-18.2531	-64.6703	-10.4658	-30.3776	-88.7464	-19.8431	-47.1448	-109.64	26.3293	-34.9525	-69.5254	14.4167	-55.7812	-96.6512	8.34805	-76.043	-118.648	44.5515	-52.7144	-63.4741	45.9252	-71.4163	-78.2075	37.3192	-87.9371	-104.106	61.1474	-63.1922	-39.8685	62.8307	-83.8731	-59.643	60.6305	-98.8602	-79.0099	61.8347	-18.8906	-15.4015	72.0403	-0.487836	11.5865	39.357	11.9266	-8.50822	
2	0.0166667	18.9381	37.3146	13.4121	-6.66642	43.4515	-4.08733	-34.9715	44.9211	-26.9896	-53.8354	40.6362	-40.0749	3.66803	-2.31448	-64.6044	-13.7539	-8.80949	-84.0845	-27.4208	-24.4659	-104.096	16.1317	-26.9202	-71.7697	-0.346891	-41.9837	-92.7421	-14.289	-62.4699	-113.766	32.2849	-47.7853	-59.2949	22.003	-61.9975	-75.3549	9.47211	-79.98	-97.0988	43.7268	-60.2664	-38.8935	36.6673	-80.1566	-52.8256	30.4345	-93.7122	-70.4355	59.448	-17.9587	-16.3563	76.6658	-4.15096	7.8487	49.7088	18.8865	-9.12555	
3	0.025	38.2594	54.6849	8.64652	18.6327	71.1116	-5.31834	-8.43563	76.3562	-32.0154	-28.9313	80.9723	-44.7639	10.9446	21.6524	-63.5252	-11.4414	16.7456	-86.8928	-28.2907	5.6495	-104.022	15.5995	-11.5226	-68.566	-8.36658	-21.7354	-90.6925	-29.2285	-34.5945	-107.538	20.0302	-31.9046	-59.3464	3.53377	-45.9282	-75.4886	-16.38	-55.3632	-92.7629	26.9972	-47.5743	-34.8364	12.4543	-62.5786	-47.3644	-1.98913	-78.7205	-66.9183	58.1786	-9.98843	-16.9332	77.9935	-3.25959	11.3443	57.9225	27.7153	-12.8706	
4	0.0333333	66.1794	64.792	2.16805	53.9423	84.5756	-12.5866	33.0591	100.527	-38.441	14.0426	109.842	-53.718	23.2898	39.5049	-68.6862	5.68105	45.013	-87.3774	-17.5643	41.0371	-104.398	17.9848	14.2175	-66.8242	-12.1653	12.1235	-89.1386	-35.0977	9.57977	-105.045	11.8791	-8.60304	-52.8288	-13.0046	-13.3325	-72.3925	-36.0669	-17.4569	-89.0624	9.6763	-26.3158	-28.1886	-14.5382	-34.7095	-44.7434	-33.9146	-42.1449	-58.0446	56.3226	-4.49455	-13.2859	77.8597	-8.03393	10.8596	72.9147	25.0761	-10.9878	
5	0.0416667	83.1078	60.711	-4.23891	77.6138	80.9816	-20.0651	65.2377	101.449	-42.894	51.5888	116.178	-60.2054	35.2335	50.3447	-70.9972	14.4829	55.1548	-91.3519	-3.28031	66.7225	-112.041	17.1886	24.4732	-67.13	-8.93231	30.5468	-87.2956	-32.1507	38.7718	-104.431	2.61021	10.1687	-54.5667	-19.9471	9.66245	-66.886	-41.1817	17.9755	-83.5704	-6.48559	-5.29771	-27.2555	-26.2188	-2.40676	-38.6977	-51.8364	-6.55048	-52.9214	44.9873	-3.68651	-13.5411	67.8182	-7.15705	8.80722	73.6966	20.9737	-16.6699	
6	0.05	92.3888	46.4167	-8.99474	98.5699	67.7259	-29.4623	90.2798	89.5682	-58.2985	82.3895	106.44	-73.1917	42.7215	43.4852	-76.3103	29.0335	55.607	-100.002	8.32639	63.026	-117.425	19.9228	27.8386	-72.0967	-3.1671	39.1851	-91.8581	-26.4313	50.6298	-110.604	-2.03474	16.3068	-54.2399	-22.0096	23.7268	-68.0663	-41.295	34.0348	-85.1995	-8.50308	11.1344	-26.7853	-34.7837	17.0292	-37.7865	-56.3774	20.7205	-53.1474	42.1977	-2.28853	-12.9005	61.6009	-9.66118	10.6784	74.1566	12.8011	-18.8201	
7	0.0583333	102.819	31.0665	-10.5725	109.826	48.0364	-36.3265	107.703	66.8477	-66.1503	102.662	82.4985	-87.0628	53.4753	28.9198	-83.4424	37.1584	39.2523	-108.08	22.8276	49.6705	-130.395	23.0723	19.655	-77.1855	4.58517	32.4078	-100.095	-19.2275	44.5804	-121.945	1.27762	14.9172	-58.7569	-17.3365	23.2067	-75.0741	-29.977	34.6128	-95.6385	-4.87842	13.1827	-30.3709	-25.2022	22.2024	-44.1878	-48.1592	25.3472	-59.3956	39.5442	-6.69488	-18.3995	58.7416	-16.4909	12.282	79.0272	0.398837	-19.3043	
8	0.0666667	105.233	20.3892	-16.9462	118.493	34.3826	-39.8411	118.637	48.7264	-69.5189	118.132	63.034	-92.3847	61.3058	13.455	-87.8515	51.6294	19.6933	-113.711	37.8715	26.4859	-134.18	32.7185	5.05294	-81.0806	13.8039	16.4738	-108.877	-0.915821	24.5374	-128.367	15.1193	3.11357	-63.3408	-3.04327	10.7753	-82.1883	-21.804	19.0658	-106.888	0.4071	5.43884	-37.054	-18.2174	13.9525	-54.7163	-38.7421	16.1037	-65.5848	41.8586	-15.2819	-17.4732	57.6	-22.0611	10.2785	81.6045	-9.51318	-17.995	
9	0.075	116.006	13.1504	-15.6999	125.712	26.1924	-43.229	129.327	37.1279	-73.8678	128.86	48.1068	-99.2141	71.499	-3.14698	-90.7664	67.4191	1.67992	-115.864	51.7382	5.7778	-143.384	46.8518	-11.4161	-89.7651	28.3036	-5.81455	-116.429	14.6943	-1.69304	-139.242	24.8383	-12.5291	-68.7199	9.32629	-8.20866	-90.112	-7.05431	-4.30998	-115.293	7.52907	-8.33568	-42.8589	-9.52911	-3.89784	-62.0583	-25.9702	-4.6688	-79.6289	54.8294	-20.5932	-20.1993	63.5817	-27.5966	7.20055	88.5445	-19.5907	-18.4397	
